/vscmnt/brussel_pixiu_data/_data_brussel/112/vsc11236/PredSimResults/SUBJ11opt3D/weighted-LRposFixed/trackIG/worker_02.mot
version=1
nRows=8
nColumns=50
inDegrees=yes
endheader
                time	         pelvis_tilt	         pelvis_list	     pelvis_rotation	           pelvis_tx	           pelvis_ty	           pelvis_tz	       hip_flexion_r	     hip_adduction_r	      hip_rotation_r	        knee_angle_r	       ankle_angle_r	         mtp_angle_r	       hip_flexion_l	     hip_adduction_l	      hip_rotation_l	        knee_angle_l	       ankle_angle_l	         mtp_angle_l	    lumbar_extension	      lumbar_bending	     lumbar_rotation	 ercspn_r/activation	 intobl_r/activation	 extobl_r/activation	    abd_r/activation	    add_r/activation	hamstrings_r/activation	bifemsh_r/activation	glut_max_r/activation	iliopsoas_r/activation	rect_fem_r/activation	  vasti_r/activation	gastroc_r/activation	 soleus_r/activation	tib_ant_r/activation	 ercspn_l/activation	 intobl_l/activation	 extobl_l/activation	    abd_l/activation	    add_l/activation	hamstrings_l/activation	bifemsh_l/activation	glut_max_l/activation	iliopsoas_l/activation	rect_fem_l/activation	  vasti_l/activation	gastroc_l/activation	 soleus_l/activation	tib_ant_l/activation	
          1.40885860	         -2.88494064	         -1.19761074	          6.19203731	          1.46521295	          0.94090515	         -0.00435894	         31.06064580	         -1.56262431	         -4.27194736	        -10.50838047	          1.42676988	          0.25665901	        -13.79959047	         -3.26777830	         -2.00341342	        -12.69297468	         12.32424510	         30.28421456	        -14.03652699	         -2.16977022	         -3.41622415	          0.02548684	          0.21576750	          0.06046508	          0.00999999	          0.23772457	          0.03342168	          0.10642459	          0.08538105	          0.09556343	          0.04020444	          0.01587624	          0.00999999	          0.00999999	          0.41443884	          0.00999999	          0.00999999	          0.00999999	          0.03544867	          0.04002745	          0.02006221	          0.22334303	          0.02403326	          0.19166448	          0.00999999	          0.00999999	          0.14099695	          0.31484646	          0.01234809	
          1.42294719	         -3.02044152	         -1.26509806	          6.24542385	          1.48428279	          0.93875409	         -0.00296291	         30.73631667	         -1.35851647	         -4.41454763	        -11.64087889	          0.95072067	          0.20989037	        -14.23008329	         -3.54968590	         -2.39465363	        -13.69366844	         11.47913503	         32.18290785	        -13.53702683	         -1.63877510	         -3.63226298	          0.02064030	          0.17473744	          0.04896712	          0.03473125	          0.19251918	          0.05261403	          0.08618703	          0.11274880	          0.07739122	          0.03255922	          0.01285724	          0.01234809	          0.01234809	          0.46464217	          0.01438332	          0.00999999	          0.00999999	          0.02870780	          0.03241588	          0.02770135	          0.18087242	          0.01946313	          0.15521782	          0.00999999	          0.00999999	          0.11418516	          0.29077051	          0.00999999	
          1.43703578	         -3.13515211	         -1.33268775	          6.27147791	          1.50360151	          0.93700006	         -0.00148410	         30.36825331	         -1.17122522	         -4.60363525	        -12.74388145	          0.28418171	          0.20180400	        -14.46001895	         -3.84625353	         -2.79781099	        -15.08050281	         10.45091938	         34.17292470	        -13.02256581	         -1.10393835	         -3.83649303	          0.02569383	          0.14150960	          0.03965560	          0.08119962	          0.23084249	          0.04833690	          0.06979782	          0.12445419	          0.06267461	          0.02636780	          0.01318955	          0.00999999	          0.00999999	          0.53647507	          0.02574559	          0.00999999	          0.00999999	          0.02324876	          0.02625172	          0.02243370	          0.14647797	          0.01576205	          0.13466104	          0.00999999	          0.00999999	          0.09247186	          0.26362717	          0.00999999	
          1.45112436	         -3.22885620	         -1.38933692	          6.26666026	          1.52285108	          0.93582649	          0.00008090	         30.09474591	         -1.01081886	         -4.86364362	        -14.01189427	         -0.44195134	          0.15983905	        -14.40103712	         -4.14866961	         -3.20686916	        -16.96256289	          9.20599932	         36.22296241	        -12.53152000	         -0.57976146	         -4.02319011	          0.03165327	          0.11460033	          0.03211474	          0.11429857	          0.27010048	          0.05458497	          0.05652516	          0.10670635	          0.05075649	          0.02135373	          0.09527192	          0.00999999	          0.00999999	          0.59112987	          0.05374885	          0.00999999	          0.00999999	          0.01882781	          0.07317499	          0.02825693	          0.11862391	          0.01276476	          0.10905408	          0.00999999	          0.00999999	          0.07488754	          0.22316703	          0.00999999	
          1.46521295	         -3.30301613	         -1.43699131	          6.23364201	          1.54185920	          0.93538705	          0.00170800	         29.86673886	         -0.86178546	         -5.13588982	        -15.41275463	         -0.86622652	          0.10109078	        -13.98191002	         -4.46253654	         -3.61905502	        -19.43027810	          7.73231507	         38.20375740	        -12.07806953	         -0.06487055	         -4.18997202	          0.02563413	          0.09280808	          0.02600785	          0.13455747	          0.28803358	          0.05645194	          0.04577641	          0.12816590	          0.04110470	          0.01729314	          0.16300080	          0.00999999	          0.00999999	          0.60249093	          0.08510984	          0.00999999	          0.00999999	          0.01524754	          0.14504246	          0.03789930	          0.09606655	          0.01033743	          0.08831650	          0.00999999	          0.00999999	          0.06064702	          0.18072988	          0.00999999	
          1.47930153	         -3.36046772	         -1.47539168	          6.16945112	          1.56041182	          0.93584208	          0.00336040	         29.61476388	         -0.70840997	         -5.36496520	        -16.84476412	         -0.78220644	          0.05000590	        -13.13500724	         -4.78901522	         -4.04123188	        -22.55421854	          6.02946178	         39.87194359	        -11.68110066	          0.44179242	         -4.33044189	          0.02075958	          0.07515982	          0.02106223	          0.14664090	          0.30137411	          0.05937493	          0.03707163	          0.13143282	          0.03328829	          0.01400470	          0.19721568	          0.00999999	          0.00999999	          0.55194577	          0.10212364	          0.00999999	          0.00999999	          0.01234809	          0.19491817	          0.05352040	          0.08587537	          0.00999999	          0.07152235	          0.00999999	          0.00999999	          0.04911447	          0.14636253	          0.00999999	
          1.49339012	         -3.40336150	         -1.49471701	          6.07226849	          1.57836604	          0.93722174	          0.00499099	         29.27161684	         -0.54709560	         -5.50496386	        -18.16799571	         -0.22092939	          0.05632437	        -11.83282682	         -5.12481310	         -4.50773627	        -26.36721092	          4.27959827	         40.61032121	        -11.35226384	          0.93288649	         -4.44074493	          0.01681197	          0.06086753	          0.01705706	          0.14934217	          0.29950426	          0.06203392	          0.03002214	          0.12716316	          0.02695823	          0.01134158	          0.24343592	          0.00999999	          0.00999999	          0.46089332	          0.10492554	          0.00999999	          0.00999999	          0.00999999	          0.24906545	          0.05649430	          0.06954542	          0.00999999	          0.05792176	          0.00999999	          0.00999999	          0.03977492	          0.11853043	          0.00999999	
          1.50747871	         -3.43390437	         -1.47501623	          5.93587383	          1.59567382	          0.93951807	          0.00655282	         28.73238136	         -0.38470677	         -5.53350665	        -19.15835413	          0.62560859	          0.20149690	        -10.09165880	         -5.46112377	         -5.01908824	        -30.81109803	          2.48315618	         40.14802293	        -11.09515029	          1.39050882	         -4.51494607	          0.01361502	          0.04929304	          0.01381352	          0.14259552	          0.28096150	          0.06604334	          0.02431317	          0.10344581	          0.02183189	          0.00999999	          0.26776267	          0.00999999	          0.00999999	          0.37476679	          0.08639323	          0.00999999	          0.02320079	          0.00999999	          0.28812818	          0.04942469	          0.06048563	          0.00999999	          0.04690743	          0.00999999	          0.00999999	          0.03221138	          0.09599084	          0.00999999	
